<svg width="2300" height="536" xmlns="http://www.w3.org/2000/svg" xmlns:xlink="http://www.w3.org/1999/xlink" overflow="hidden"><defs><clipPath id="clip0"><rect x="-510" y="92" width="2300" height="536"/></clipPath><linearGradient x1="171" y1="0" x2="171" y2="534" gradientUnits="userSpaceOnUse" spreadMethod="reflect" id="fill1"><stop offset="0" stop-color="#4C9BF2"/><stop offset="0.0116279" stop-color="#4B9AF2"/><stop offset="0.0232558" stop-color="#4B9AF2"/><stop offset="0.0348837" stop-color="#4B9AF2"/><stop offset="0.0465116" stop-color="#4B9AF3"/><stop offset="0.0581395" stop-color="#4B9AF3"/><stop offset="0.0697674" stop-color="#4B9AF3"/><stop offset="0.0813954" stop-color="#4B9AF3"/><stop offset="0.0930233" stop-color="#4B99F4"/><stop offset="0.104651" stop-color="#4B99F4"/><stop offset="0.116279" stop-color="#4A99F4"/><stop offset="0.127907" stop-color="#4A99F4"/><stop offset="0.139535" stop-color="#4A98F5"/><stop offset="0.151163" stop-color="#4A98F5"/><stop offset="0.162791" stop-color="#4998F5"/><stop offset="0.174419" stop-color="#4997F5"/><stop offset="0.186047" stop-color="#4997F6"/><stop offset="0.197674" stop-color="#4896F6"/><stop offset="0.209302" stop-color="#4896F6"/><stop offset="0.22093" stop-color="#4895F6"/><stop offset="0.232558" stop-color="#4795F7"/><stop offset="0.244186" stop-color="#4794F7"/><stop offset="0.255814" stop-color="#4694F7"/><stop offset="0.267442" stop-color="#4693F7"/><stop offset="0.27907" stop-color="#4593F7"/><stop offset="0.290698" stop-color="#4592F8"/><stop offset="0.302326" stop-color="#4491F8"/><stop offset="0.313953" stop-color="#4491F8"/><stop offset="0.325581" stop-color="#4390F8"/><stop offset="0.337209" stop-color="#438FF8"/><stop offset="0.348837" stop-color="#428EF9"/><stop offset="0.360465" stop-color="#428EF9"/><stop offset="0.372093" stop-color="#418DF9"/><stop offset="0.383721" stop-color="#408CF9"/><stop offset="0.395349" stop-color="#408BF9"/><stop offset="0.406977" stop-color="#3F8AFA"/><stop offset="0.418605" stop-color="#3E8AFA"/><stop offset="0.430233" stop-color="#3E89FA"/><stop offset="0.44186" stop-color="#3D88FA"/><stop offset="0.453488" stop-color="#3C87FA"/><stop offset="0.465116" stop-color="#3C86FA"/><stop offset="0.476744" stop-color="#3B85FB"/><stop offset="0.488372" stop-color="#3A84FB"/><stop offset="0.5" stop-color="#3983FB"/><stop offset="0.511628" stop-color="#3882FB"/><stop offset="0.523256" stop-color="#3881FB"/><stop offset="0.534884" stop-color="#3780FB"/><stop offset="0.546512" stop-color="#367EFC"/><stop offset="0.55814" stop-color="#357DFC"/><stop offset="0.569767" stop-color="#347CFC"/><stop offset="0.581395" stop-color="#337BFC"/><stop offset="0.593023" stop-color="#327AFC"/><stop offset="0.604651" stop-color="#3179FC"/><stop offset="0.616279" stop-color="#3077FC"/><stop offset="0.627907" stop-color="#3076FC"/><stop offset="0.639535" stop-color="#2F75FD"/><stop offset="0.651163" stop-color="#2E74FD"/><stop offset="0.662791" stop-color="#2D72FD"/><stop offset="0.674419" stop-color="#2B71FD"/><stop offset="0.686047" stop-color="#2A70FD"/><stop offset="0.697674" stop-color="#296EFD"/><stop offset="0.709302" stop-color="#286DFD"/><stop offset="0.72093" stop-color="#276BFD"/><stop offset="0.732558" stop-color="#266AFD"/><stop offset="0.744186" stop-color="#2569FD"/><stop offset="0.755814" stop-color="#2467FE"/><stop offset="0.767442" stop-color="#2366FE"/><stop offset="0.77907" stop-color="#2264FE"/><stop offset="0.790698" stop-color="#2062FE"/><stop offset="0.802326" stop-color="#1F61FE"/><stop offset="0.813953" stop-color="#1E5FFE"/><stop offset="0.825581" stop-color="#1D5EFE"/><stop offset="0.837209" stop-color="#1B5CFE"/><stop offset="0.848837" stop-color="#1A5BFE"/><stop offset="0.860465" stop-color="#1959FE"/><stop offset="0.872093" stop-color="#1857FE"/><stop offset="0.883721" stop-color="#1655FE"/><stop offset="0.895349" stop-color="#1554FE"/><stop offset="0.906977" stop-color="#1452FE"/><stop offset="0.918605" stop-color="#1250FE"/><stop offset="0.930233" stop-color="#114FFE"/><stop offset="0.94186" stop-color="#104DFE"/><stop offset="0.953488" stop-color="#0E4BFE"/><stop offset="0.965116" stop-color="#0D49FE"/><stop offset="0.976744" stop-color="#0B47FE"/><stop offset="0.988372" stop-color="#0A45FE"/><stop offset="1" stop-color="#0944FF"/></linearGradient><linearGradient x1="-81.5" y1="93" x2="-81.5" y2="627" gradientUnits="userSpaceOnUse" spreadMethod="reflect" id="fill2"><stop offset="0" stop-color="#4C9BF2"/><stop offset="0.0116279" stop-color="#4B9AF2"/><stop offset="0.0232558" stop-color="#4B9AF2"/><stop offset="0.0348837" stop-color="#4B9AF2"/><stop offset="0.0465116" stop-color="#4B9AF3"/><stop offset="0.0581395" stop-color="#4B9AF3"/><stop offset="0.0697674" stop-color="#4B9AF3"/><stop offset="0.0813954" stop-color="#4B9AF3"/><stop offset="0.0930233" stop-color="#4B99F4"/><stop offset="0.104651" stop-color="#4B99F4"/><stop offset="0.116279" stop-color="#4A99F4"/><stop offset="0.127907" stop-color="#4A99F4"/><stop offset="0.139535" stop-color="#4A98F5"/><stop offset="0.151163" stop-color="#4A98F5"/><stop offset="0.162791" stop-color="#4998F5"/><stop offset="0.174419" stop-color="#4997F5"/><stop offset="0.186047" stop-color="#4997F6"/><stop offset="0.197674" stop-color="#4896F6"/><stop offset="0.209302" stop-color="#4896F6"/><stop offset="0.22093" stop-color="#4895F6"/><stop offset="0.232558" stop-color="#4795F7"/><stop offset="0.244186" stop-color="#4794F7"/><stop offset="0.255814" stop-color="#4694F7"/><stop offset="0.267442" stop-color="#4693F7"/><stop offset="0.27907" stop-color="#4593F7"/><stop offset="0.290698" stop-color="#4592F8"/><stop offset="0.302326" stop-color="#4491F8"/><stop offset="0.313953" stop-color="#4491F8"/><stop offset="0.325581" stop-color="#4390F8"/><stop offset="0.337209" stop-color="#438FF8"/><stop offset="0.348837" stop-color="#428EF9"/><stop offset="0.360465" stop-color="#428EF9"/><stop offset="0.372093" stop-color="#418DF9"/><stop offset="0.383721" stop-color="#408CF9"/><stop offset="0.395349" stop-color="#408BF9"/><stop offset="0.406977" stop-color="#3F8AFA"/><stop offset="0.418605" stop-color="#3E8AFA"/><stop offset="0.430233" stop-color="#3E89FA"/><stop offset="0.44186" stop-color="#3D88FA"/><stop offset="0.453488" stop-color="#3C87FA"/><stop offset="0.465116" stop-color="#3C86FA"/><stop offset="0.476744" stop-color="#3B85FB"/><stop offset="0.488372" stop-color="#3A84FB"/><stop offset="0.5" stop-color="#3983FB"/><stop offset="0.511628" stop-color="#3882FB"/><stop offset="0.523256" stop-color="#3881FB"/><stop offset="0.534884" stop-color="#3780FB"/><stop offset="0.546512" stop-color="#367EFC"/><stop offset="0.55814" stop-color="#357DFC"/><stop offset="0.569767" stop-color="#347CFC"/><stop offset="0.581395" stop-color="#337BFC"/><stop offset="0.593023" stop-color="#327AFC"/><stop offset="0.604651" stop-color="#3179FC"/><stop offset="0.616279" stop-color="#3077FC"/><stop offset="0.627907" stop-color="#3076FC"/><stop offset="0.639535" stop-color="#2F75FD"/><stop offset="0.651163" stop-color="#2E74FD"/><stop offset="0.662791" stop-color="#2D72FD"/><stop offset="0.674419" stop-color="#2B71FD"/><stop offset="0.686047" stop-color="#2A70FD"/><stop offset="0.697674" stop-color="#296EFD"/><stop offset="0.709302" stop-color="#286DFD"/><stop offset="0.72093" stop-color="#276BFD"/><stop offset="0.732558" stop-color="#266AFD"/><stop offset="0.744186" stop-color="#2569FD"/><stop offset="0.755814" stop-color="#2467FE"/><stop offset="0.767442" stop-color="#2366FE"/><stop offset="0.77907" stop-color="#2264FE"/><stop offset="0.790698" stop-color="#2062FE"/><stop offset="0.802326" stop-color="#1F61FE"/><stop offset="0.813953" stop-color="#1E5FFE"/><stop offset="0.825581" stop-color="#1D5EFE"/><stop offset="0.837209" stop-color="#1B5CFE"/><stop offset="0.848837" stop-color="#1A5BFE"/><stop offset="0.860465" stop-color="#1959FE"/><stop offset="0.872093" stop-color="#1857FE"/><stop offset="0.883721" stop-color="#1655FE"/><stop offset="0.895349" stop-color="#1554FE"/><stop offset="0.906977" stop-color="#1452FE"/><stop offset="0.918605" stop-color="#1250FE"/><stop offset="0.930233" stop-color="#114FFE"/><stop offset="0.94186" stop-color="#104DFE"/><stop offset="0.953488" stop-color="#0E4BFE"/><stop offset="0.965116" stop-color="#0D49FE"/><stop offset="0.976744" stop-color="#0B47FE"/><stop offset="0.988372" stop-color="#0A45FE"/><stop offset="1" stop-color="#0944FF"/></linearGradient><linearGradient x1="-338" y1="627" x2="-338" y2="93" gradientUnits="userSpaceOnUse" spreadMethod="reflect" id="fill3"><stop offset="0" stop-color="#4C9BF2"/><stop offset="0.0116279" stop-color="#4B9AF2"/><stop offset="0.0232558" stop-color="#4B9AF2"/><stop offset="0.0348837" stop-color="#4B9AF2"/><stop offset="0.0465116" stop-color="#4B9AF3"/><stop offset="0.0581395" stop-color="#4B9AF3"/><stop offset="0.0697674" stop-color="#4B9AF3"/><stop offset="0.0813954" stop-color="#4B9AF3"/><stop offset="0.0930233" stop-color="#4B99F4"/><stop offset="0.104651" stop-color="#4B99F4"/><stop offset="0.116279" stop-color="#4A99F4"/><stop offset="0.127907" stop-color="#4A99F4"/><stop offset="0.139535" stop-color="#4A98F5"/><stop offset="0.151163" stop-color="#4A98F5"/><stop offset="0.162791" stop-color="#4998F5"/><stop offset="0.174419" stop-color="#4997F5"/><stop offset="0.186047" stop-color="#4997F6"/><stop offset="0.197674" stop-color="#4896F6"/><stop offset="0.209302" stop-color="#4896F6"/><stop offset="0.22093" stop-color="#4895F6"/><stop offset="0.232558" stop-color="#4795F7"/><stop offset="0.244186" stop-color="#4794F7"/><stop offset="0.255814" stop-color="#4694F7"/><stop offset="0.267442" stop-color="#4693F7"/><stop offset="0.27907" stop-color="#4593F7"/><stop offset="0.290698" stop-color="#4592F8"/><stop offset="0.302326" stop-color="#4491F8"/><stop offset="0.313953" stop-color="#4491F8"/><stop offset="0.325581" stop-color="#4390F8"/><stop offset="0.337209" stop-color="#438FF8"/><stop offset="0.348837" stop-color="#428EF9"/><stop offset="0.360465" stop-color="#428EF9"/><stop offset="0.372093" stop-color="#418DF9"/><stop offset="0.383721" stop-color="#408CF9"/><stop offset="0.395349" stop-color="#408BF9"/><stop offset="0.406977" stop-color="#3F8AFA"/><stop offset="0.418605" stop-color="#3E8AFA"/><stop offset="0.430233" stop-color="#3E89FA"/><stop offset="0.44186" stop-color="#3D88FA"/><stop offset="0.453488" stop-color="#3C87FA"/><stop offset="0.465116" stop-color="#3C86FA"/><stop offset="0.476744" stop-color="#3B85FB"/><stop offset="0.488372" stop-color="#3A84FB"/><stop offset="0.5" stop-color="#3983FB"/><stop offset="0.511628" stop-color="#3882FB"/><stop offset="0.523256" stop-color="#3881FB"/><stop offset="0.534884" stop-color="#3780FB"/><stop offset="0.546512" stop-color="#367EFC"/><stop offset="0.55814" stop-color="#357DFC"/><stop offset="0.569767" stop-color="#347CFC"/><stop offset="0.581395" stop-color="#337BFC"/><stop offset="0.593023" stop-color="#327AFC"/><stop offset="0.604651" stop-color="#3179FC"/><stop offset="0.616279" stop-color="#3077FC"/><stop offset="0.627907" stop-color="#3076FC"/><stop offset="0.639535" stop-color="#2F75FD"/><stop offset="0.651163" stop-color="#2E74FD"/><stop offset="0.662791" stop-color="#2D72FD"/><stop offset="0.674419" stop-color="#2B71FD"/><stop offset="0.686047" stop-color="#2A70FD"/><stop offset="0.697674" stop-color="#296EFD"/><stop offset="0.709302" stop-color="#286DFD"/><stop offset="0.72093" stop-color="#276BFD"/><stop offset="0.732558" stop-color="#266AFD"/><stop offset="0.744186" stop-color="#2569FD"/><stop offset="0.755814" stop-color="#2467FE"/><stop offset="0.767442" stop-color="#2366FE"/><stop offset="0.77907" stop-color="#2264FE"/><stop offset="0.790698" stop-color="#2062FE"/><stop offset="0.802326" stop-color="#1F61FE"/><stop offset="0.813953" stop-color="#1E5FFE"/><stop offset="0.825581" stop-color="#1D5EFE"/><stop offset="0.837209" stop-color="#1B5CFE"/><stop offset="0.848837" stop-color="#1A5BFE"/><stop offset="0.860465" stop-color="#1959FE"/><stop offset="0.872093" stop-color="#1857FE"/><stop offset="0.883721" stop-color="#1655FE"/><stop offset="0.895349" stop-color="#1554FE"/><stop offset="0.906977" stop-color="#1452FE"/><stop offset="0.918605" stop-color="#1250FE"/><stop offset="0.930233" stop-color="#114FFE"/><stop offset="0.94186" stop-color="#104DFE"/><stop offset="0.953488" stop-color="#0E4BFE"/><stop offset="0.965116" stop-color="#0D49FE"/><stop offset="0.976744" stop-color="#0B47FE"/><stop offset="0.988372" stop-color="#0A45FE"/><stop offset="1" stop-color="#0944FF"/></linearGradient></defs><g clip-path="url(#clip0)" transform="translate(510 -92)"><path d="M0 0 171 0 342 267 171 534 0 534 171 267Z" fill="url(#fill1)" fill-rule="evenodd" transform="matrix(1 -1.22465e-16 -1.22465e-16 -1 4 627)"/><path d="M-338 93-167 93-81.4999 226.5 4 93 175 93 4 360 175 627 4 627-81.4999 493.5-167 627-338 627-167 360Z" fill="url(#fill2)" fill-rule="evenodd"/><path d="M-167 627-338 627-509 360-338 93-167 93-338 360Z" fill="url(#fill3)" fill-rule="evenodd"/><path d="M1651.93 220C1651.93 267.966 1651.93 315.932 1651.93 363.898 1675.67 338.744 1699.41 313.589 1723.15 288.435 1743.16 288.435 1763.17 288.435 1783.18 288.435 1759.59 312.85 1735.99 337.264 1712.4 361.679 1737.93 405.453 1763.47 449.226 1789 493 1770.78 493 1752.57 493 1734.35 493 1716.13 460.571 1697.92 428.141 1679.7 395.711 1670.44 405.206 1661.19 414.701 1651.93 424.195 1651.93 447.13 1651.93 470.065 1651.93 493 1635.95 493 1619.98 493 1604 493 1604 407.672 1604 322.344 1604 237.016 1619.98 231.344 1635.95 225.672 1651.93 220Z" fill="#051E5B" fill-rule="evenodd"/><path d="M517 227C574.333 227 631.666 227 689 227 689 240.214 689 253.427 689 266.641 647.684 266.641 606.368 266.641 565.052 266.641 565.052 290.104 565.052 313.567 565.052 337.031 590.949 337.031 616.847 337.031 642.744 337.031 642.744 350.121 642.744 363.211 642.744 376.301 616.847 376.301 590.949 376.301 565.052 376.301 565.052 402.111 565.052 427.92 565.052 453.73 606.368 453.73 647.684 453.73 689 453.73 689 466.82 689 479.91 689 493 631.667 493 574.334 493 517 493 517 404.334 517 315.667 517 227Z" fill="#051E5B" fill-rule="evenodd"/><path d="M689 227C708.15 227 727.3 227 746.45 227 769.191 259.602 791.932 292.203 814.673 324.805 837.713 292.203 860.753 259.602 883.793 227 902.195 227 920.598 227 939 227 907.133 271.457 875.266 315.914 843.398 360.371 874.069 404.581 904.739 448.79 935.409 493 916.708 493 898.006 493 879.305 493 857.013 459.781 834.721 426.562 812.429 393.343 789.987 426.562 767.546 459.781 745.104 493 726.403 493 707.701 493 689 493 720.119 448.296 751.238 403.593 782.357 358.889 751.238 314.926 720.119 270.963 689 227Z" fill="#051E5B" fill-rule="evenodd"/><path d="M939 227C969.069 227 999.138 227 1029.21 227 1051.65 227 1072.14 230.273 1090.69 236.818 1109.24 243.363 1125.1 252.501 1138.26 264.233 1151.43 275.964 1161.67 289.919 1169 306.096 1176.33 322.273 1180 339.871 1180 358.889 1180 379.635 1176.11 398.344 1168.33 415.015 1160.55 431.687 1149.86 445.765 1136.24 457.249 1122.63 468.734 1106.4 477.564 1087.55 483.738 1068.7 489.913 1048.35 493 1026.51 493 997.343 493 968.171 493 939 493 939 404.334 939 315.667 939 227ZM987.021 266.641C987.021 328.757 987.021 390.873 987.021 452.989 997.791 452.989 1008.56 452.989 1019.33 452.989 1036.69 452.989 1052.24 450.704 1066.01 446.135 1079.77 441.566 1091.44 435.083 1101.01 426.685 1110.59 418.288 1117.99 408.409 1123.23 397.047 1128.46 385.686 1131.08 373.09 1131.08 359.259 1131.08 345.181 1128.69 332.461 1123.9 321.1 1119.11 309.739 1112.01 300.045 1102.58 292.018 1093.16 283.991 1081.49 277.755 1067.58 273.309 1053.67 268.863 1037.58 266.641 1019.33 266.641 1008.56 266.641 997.791 266.641 987.021 266.641Z" fill="#051E5B" fill-rule="evenodd"/><path d="M1297.69 285C1312.04 285 1325.19 287.087 1337.15 291.26 1349.11 295.434 1359.35 301.755 1367.87 310.224 1376.39 318.694 1383.04 329.373 1387.83 342.261 1392.61 355.149 1395 370.185 1395 387.37 1395 393.507 1394.85 398.847 1394.55 403.388 1394.25 407.93 1393.95 410.937 1393.65 412.41 1343.73 412.41 1293.8 412.41 1243.88 412.41 1243.88 418.793 1245.3 424.623 1248.14 429.902 1250.98 435.18 1254.79 439.783 1259.57 443.71 1264.36 447.638 1270.04 450.645 1276.61 452.732 1283.19 454.819 1290.37 455.862 1298.14 455.862 1306.81 455.862 1314.28 454.696 1320.56 452.364 1326.84 450.032 1332.37 446.533 1337.15 441.869 1347.91 449.97 1358.68 458.072 1369.44 466.173 1359.87 476.483 1348.96 484.032 1336.7 488.819 1324.45 493.607 1311.14 496 1296.79 496 1263.31 496 1237.97 487.04 1220.78 469.119 1203.59 451.198 1195 425.544 1195 392.157 1195 375.709 1197.39 360.857 1202.17 347.6 1206.96 334.344 1213.76 323.051 1222.58 313.723 1231.4 304.394 1242.16 297.275 1254.87 292.365 1267.57 287.455 1281.85 285 1297.69 285ZM1297.24 323.665C1281.1 323.665 1268.32 328.329 1258.9 337.658 1249.48 346.987 1244.48 359.016 1243.88 373.745 1278.11 373.745 1312.34 373.745 1346.57 373.745 1345.97 358.279 1341.19 346.066 1332.22 337.105 1323.25 328.145 1311.59 323.665 1297.24 323.665Z" fill="#051E5B" fill-rule="evenodd"/><path d="M1512.91 285C1530.79 285 1545.84 287.823 1558.05 293.469 1570.27 299.116 1579.36 305.867 1585.32 313.723 1573.1 321.824 1560.88 329.925 1548.67 338.026 1544.5 333.853 1539.65 330.661 1534.14 328.452 1528.63 326.243 1521.55 325.138 1512.91 325.138 1496.82 325.138 1483.93 331.03 1474.25 342.813 1464.56 354.597 1459.72 370.063 1459.72 389.211 1459.72 433.645 1478.19 455.862 1515.14 455.862 1522 455.862 1528.18 454.573 1533.69 451.996 1539.21 449.418 1544.2 446.042 1548.67 441.869 1561.78 449.848 1574.89 457.826 1588 465.804 1568.33 485.935 1543.3 496 1512.91 496 1497.12 496 1482.89 493.422 1470.22 488.267 1457.56 483.112 1446.83 475.87 1438.04 466.541 1429.25 457.212 1422.55 445.981 1417.93 432.847 1413.31 419.714 1411 405.045 1411 388.843 1411 373.868 1413.53 359.998 1418.6 347.232 1423.66 334.467 1430.74 323.481 1439.83 314.275 1448.92 305.069 1459.65 297.888 1472.01 292.733 1484.38 287.578 1498.01 285 1512.91 285Z" fill="#051E5B" fill-rule="evenodd"/></g></svg>