<svg xmlns="http://www.w3.org/2000/svg" width="2300" height="536" overflow="hidden" xmlns:v="https://vecta.io/nano"><defs><clipPath id="A"><path d="M-510 92h2300v536H-510z"/></clipPath><linearGradient x1="171" y1="0" x2="171" y2="534" gradientUnits="userSpaceOnUse" spreadMethod="reflect" id="B"><stop offset="0" stop-color="#4c9bf2"/><stop offset=".012" stop-color="#4b9af2"/><stop offset=".035" stop-color="#4b9af2"/><stop offset=".047" stop-color="#4b9af3"/><stop offset=".081" stop-color="#4b9af3"/><stop offset=".093" stop-color="#4b99f4"/><stop offset=".105" stop-color="#4b99f4"/><stop offset=".116" stop-color="#4a99f4"/><stop offset=".128" stop-color="#4a99f4"/><stop offset=".14" stop-color="#4a98f5"/><stop offset=".151" stop-color="#4a98f5"/><stop offset=".163" stop-color="#4998f5"/><stop offset=".174" stop-color="#4997f5"/><stop offset=".186" stop-color="#4997f6"/><stop offset=".198" stop-color="#4896f6"/><stop offset=".209" stop-color="#4896f6"/><stop offset=".221" stop-color="#4895f6"/><stop offset=".233" stop-color="#4795f7"/><stop offset=".244" stop-color="#4794f7"/><stop offset=".256" stop-color="#4694f7"/><stop offset=".267" stop-color="#4693f7"/><stop offset=".279" stop-color="#4593f7"/><stop offset=".291" stop-color="#4592f8"/><stop offset=".302" stop-color="#4491f8"/><stop offset=".314" stop-color="#4491f8"/><stop offset=".326" stop-color="#4390f8"/><stop offset=".337" stop-color="#438ff8"/><stop offset=".349" stop-color="#428ef9"/><stop offset=".36" stop-color="#428ef9"/><stop offset=".372" stop-color="#418df9"/><stop offset=".384" stop-color="#408cf9"/><stop offset=".395" stop-color="#408bf9"/><stop offset=".407" stop-color="#3f8afa"/><stop offset=".419" stop-color="#3e8afa"/><stop offset=".43" stop-color="#3e89fa"/><stop offset=".442" stop-color="#3d88fa"/><stop offset=".453" stop-color="#3c87fa"/><stop offset=".465" stop-color="#3c86fa"/><stop offset=".477" stop-color="#3b85fb"/><stop offset=".488" stop-color="#3a84fb"/><stop offset=".5" stop-color="#3983fb"/><stop offset=".512" stop-color="#3882fb"/><stop offset=".523" stop-color="#3881fb"/><stop offset=".535" stop-color="#3780fb"/><stop offset=".547" stop-color="#367efc"/><stop offset=".558" stop-color="#357dfc"/><stop offset=".57" stop-color="#347cfc"/><stop offset=".581" stop-color="#337bfc"/><stop offset=".593" stop-color="#327afc"/><stop offset=".605" stop-color="#3179fc"/><stop offset=".616" stop-color="#3077fc"/><stop offset=".628" stop-color="#3076fc"/><stop offset=".64" stop-color="#2f75fd"/><stop offset=".651" stop-color="#2e74fd"/><stop offset=".663" stop-color="#2d72fd"/><stop offset=".674" stop-color="#2b71fd"/><stop offset=".686" stop-color="#2a70fd"/><stop offset=".698" stop-color="#296efd"/><stop offset=".709" stop-color="#286dfd"/><stop offset=".721" stop-color="#276bfd"/><stop offset=".733" stop-color="#266afd"/><stop offset=".744" stop-color="#2569fd"/><stop offset=".756" stop-color="#2467fe"/><stop offset=".767" stop-color="#2366fe"/><stop offset=".779" stop-color="#2264fe"/><stop offset=".791" stop-color="#2062fe"/><stop offset=".802" stop-color="#1f61fe"/><stop offset=".814" stop-color="#1e5ffe"/><stop offset=".826" stop-color="#1d5efe"/><stop offset=".837" stop-color="#1b5cfe"/><stop offset=".849" stop-color="#1a5bfe"/><stop offset=".86" stop-color="#1959fe"/><stop offset=".872" stop-color="#1857fe"/><stop offset=".884" stop-color="#1655fe"/><stop offset=".895" stop-color="#1554fe"/><stop offset=".907" stop-color="#1452fe"/><stop offset=".919" stop-color="#1250fe"/><stop offset=".93" stop-color="#114ffe"/><stop offset=".942" stop-color="#104dfe"/><stop offset=".953" stop-color="#0e4bfe"/><stop offset=".965" stop-color="#0d49fe"/><stop offset=".977" stop-color="#0b47fe"/><stop offset=".988" stop-color="#0a45fe"/><stop offset="1" stop-color="#0944ff"/></linearGradient><linearGradient x1="-81.5" y1="93" x2="-81.5" y2="627" gradientUnits="userSpaceOnUse" spreadMethod="reflect" id="C"><stop offset="0" stop-color="#4c9bf2"/><stop offset=".012" stop-color="#4b9af2"/><stop offset=".035" stop-color="#4b9af2"/><stop offset=".047" stop-color="#4b9af3"/><stop offset=".081" stop-color="#4b9af3"/><stop offset=".093" stop-color="#4b99f4"/><stop offset=".105" stop-color="#4b99f4"/><stop offset=".116" stop-color="#4a99f4"/><stop offset=".128" stop-color="#4a99f4"/><stop offset=".14" stop-color="#4a98f5"/><stop offset=".151" stop-color="#4a98f5"/><stop offset=".163" stop-color="#4998f5"/><stop offset=".174" stop-color="#4997f5"/><stop offset=".186" stop-color="#4997f6"/><stop offset=".198" stop-color="#4896f6"/><stop offset=".209" stop-color="#4896f6"/><stop offset=".221" stop-color="#4895f6"/><stop offset=".233" stop-color="#4795f7"/><stop offset=".244" stop-color="#4794f7"/><stop offset=".256" stop-color="#4694f7"/><stop offset=".267" stop-color="#4693f7"/><stop offset=".279" stop-color="#4593f7"/><stop offset=".291" stop-color="#4592f8"/><stop offset=".302" stop-color="#4491f8"/><stop offset=".314" stop-color="#4491f8"/><stop offset=".326" stop-color="#4390f8"/><stop offset=".337" stop-color="#438ff8"/><stop offset=".349" stop-color="#428ef9"/><stop offset=".36" stop-color="#428ef9"/><stop offset=".372" stop-color="#418df9"/><stop offset=".384" stop-color="#408cf9"/><stop offset=".395" stop-color="#408bf9"/><stop offset=".407" stop-color="#3f8afa"/><stop offset=".419" stop-color="#3e8afa"/><stop offset=".43" stop-color="#3e89fa"/><stop offset=".442" stop-color="#3d88fa"/><stop offset=".453" stop-color="#3c87fa"/><stop offset=".465" stop-color="#3c86fa"/><stop offset=".477" stop-color="#3b85fb"/><stop offset=".488" stop-color="#3a84fb"/><stop offset=".5" stop-color="#3983fb"/><stop offset=".512" stop-color="#3882fb"/><stop offset=".523" stop-color="#3881fb"/><stop offset=".535" stop-color="#3780fb"/><stop offset=".547" stop-color="#367efc"/><stop offset=".558" stop-color="#357dfc"/><stop offset=".57" stop-color="#347cfc"/><stop offset=".581" stop-color="#337bfc"/><stop offset=".593" stop-color="#327afc"/><stop offset=".605" stop-color="#3179fc"/><stop offset=".616" stop-color="#3077fc"/><stop offset=".628" stop-color="#3076fc"/><stop offset=".64" stop-color="#2f75fd"/><stop offset=".651" stop-color="#2e74fd"/><stop offset=".663" stop-color="#2d72fd"/><stop offset=".674" stop-color="#2b71fd"/><stop offset=".686" stop-color="#2a70fd"/><stop offset=".698" stop-color="#296efd"/><stop offset=".709" stop-color="#286dfd"/><stop offset=".721" stop-color="#276bfd"/><stop offset=".733" stop-color="#266afd"/><stop offset=".744" stop-color="#2569fd"/><stop offset=".756" stop-color="#2467fe"/><stop offset=".767" stop-color="#2366fe"/><stop offset=".779" stop-color="#2264fe"/><stop offset=".791" stop-color="#2062fe"/><stop offset=".802" stop-color="#1f61fe"/><stop offset=".814" stop-color="#1e5ffe"/><stop offset=".826" stop-color="#1d5efe"/><stop offset=".837" stop-color="#1b5cfe"/><stop offset=".849" stop-color="#1a5bfe"/><stop offset=".86" stop-color="#1959fe"/><stop offset=".872" stop-color="#1857fe"/><stop offset=".884" stop-color="#1655fe"/><stop offset=".895" stop-color="#1554fe"/><stop offset=".907" stop-color="#1452fe"/><stop offset=".919" stop-color="#1250fe"/><stop offset=".93" stop-color="#114ffe"/><stop offset=".942" stop-color="#104dfe"/><stop offset=".953" stop-color="#0e4bfe"/><stop offset=".965" stop-color="#0d49fe"/><stop offset=".977" stop-color="#0b47fe"/><stop offset=".988" stop-color="#0a45fe"/><stop offset="1" stop-color="#0944ff"/></linearGradient><linearGradient x1="-338" y1="627" x2="-338" y2="93" gradientUnits="userSpaceOnUse" spreadMethod="reflect" id="D"><stop offset="0" stop-color="#4c9bf2"/><stop offset=".012" stop-color="#4b9af2"/><stop offset=".035" stop-color="#4b9af2"/><stop offset=".047" stop-color="#4b9af3"/><stop offset=".081" stop-color="#4b9af3"/><stop offset=".093" stop-color="#4b99f4"/><stop offset=".105" stop-color="#4b99f4"/><stop offset=".116" stop-color="#4a99f4"/><stop offset=".128" stop-color="#4a99f4"/><stop offset=".14" stop-color="#4a98f5"/><stop offset=".151" stop-color="#4a98f5"/><stop offset=".163" stop-color="#4998f5"/><stop offset=".174" stop-color="#4997f5"/><stop offset=".186" stop-color="#4997f6"/><stop offset=".198" stop-color="#4896f6"/><stop offset=".209" stop-color="#4896f6"/><stop offset=".221" stop-color="#4895f6"/><stop offset=".233" stop-color="#4795f7"/><stop offset=".244" stop-color="#4794f7"/><stop offset=".256" stop-color="#4694f7"/><stop offset=".267" stop-color="#4693f7"/><stop offset=".279" stop-color="#4593f7"/><stop offset=".291" stop-color="#4592f8"/><stop offset=".302" stop-color="#4491f8"/><stop offset=".314" stop-color="#4491f8"/><stop offset=".326" stop-color="#4390f8"/><stop offset=".337" stop-color="#438ff8"/><stop offset=".349" stop-color="#428ef9"/><stop offset=".36" stop-color="#428ef9"/><stop offset=".372" stop-color="#418df9"/><stop offset=".384" stop-color="#408cf9"/><stop offset=".395" stop-color="#408bf9"/><stop offset=".407" stop-color="#3f8afa"/><stop offset=".419" stop-color="#3e8afa"/><stop offset=".43" stop-color="#3e89fa"/><stop offset=".442" stop-color="#3d88fa"/><stop offset=".453" stop-color="#3c87fa"/><stop offset=".465" stop-color="#3c86fa"/><stop offset=".477" stop-color="#3b85fb"/><stop offset=".488" stop-color="#3a84fb"/><stop offset=".5" stop-color="#3983fb"/><stop offset=".512" stop-color="#3882fb"/><stop offset=".523" stop-color="#3881fb"/><stop offset=".535" stop-color="#3780fb"/><stop offset=".547" stop-color="#367efc"/><stop offset=".558" stop-color="#357dfc"/><stop offset=".57" stop-color="#347cfc"/><stop offset=".581" stop-color="#337bfc"/><stop offset=".593" stop-color="#327afc"/><stop offset=".605" stop-color="#3179fc"/><stop offset=".616" stop-color="#3077fc"/><stop offset=".628" stop-color="#3076fc"/><stop offset=".64" stop-color="#2f75fd"/><stop offset=".651" stop-color="#2e74fd"/><stop offset=".663" stop-color="#2d72fd"/><stop offset=".674" stop-color="#2b71fd"/><stop offset=".686" stop-color="#2a70fd"/><stop offset=".698" stop-color="#296efd"/><stop offset=".709" stop-color="#286dfd"/><stop offset=".721" stop-color="#276bfd"/><stop offset=".733" stop-color="#266afd"/><stop offset=".744" stop-color="#2569fd"/><stop offset=".756" stop-color="#2467fe"/><stop offset=".767" stop-color="#2366fe"/><stop offset=".779" stop-color="#2264fe"/><stop offset=".791" stop-color="#2062fe"/><stop offset=".802" stop-color="#1f61fe"/><stop offset=".814" stop-color="#1e5ffe"/><stop offset=".826" stop-color="#1d5efe"/><stop offset=".837" stop-color="#1b5cfe"/><stop offset=".849" stop-color="#1a5bfe"/><stop offset=".86" stop-color="#1959fe"/><stop offset=".872" stop-color="#1857fe"/><stop offset=".884" stop-color="#1655fe"/><stop offset=".895" stop-color="#1554fe"/><stop offset=".907" stop-color="#1452fe"/><stop offset=".919" stop-color="#1250fe"/><stop offset=".93" stop-color="#114ffe"/><stop offset=".942" stop-color="#104dfe"/><stop offset=".953" stop-color="#0e4bfe"/><stop offset=".965" stop-color="#0d49fe"/><stop offset=".977" stop-color="#0b47fe"/><stop offset=".988" stop-color="#0a45fe"/><stop offset="1" stop-color="#0944ff"/></linearGradient></defs><g clip-path="url(#A)" transform="translate(510 -92)"><g fill-rule="evenodd"><path d="M0 0h171l171 267-171 267H0l171-267z" fill="url(#B)" transform="matrix(1 0 0 -1 4 627)"/><path d="M-338 93h171l85.5 133.5L4 93h171L4 360l171 267H4l-85.5-133.5L-167 627h-171l171-267z" fill="url(#C)"/><path d="M-167 627h-171l-171-267 171-267h171l-171 267z" fill="url(#D)"/><g fill="#051e5b"><path d="M1651.93 220v143.898l71.22-75.463h60.03l-70.78 73.244L1789 493h-54.65l-54.65-97.289-27.77 28.484V493H1604V237.016L1651.93 220zM517 227h172v39.641H565.052v70.39h77.692v39.27h-77.692v77.429H689V493H517V227z"/><path d="M689 227h57.45l68.223 97.805L883.793 227H939l-95.602 133.371L935.409 493h-56.104l-66.876-99.657L745.104 493H689l93.357-134.111L689 227z"/><path d="M939 227h90.21c22.44 0 42.93 3.273 61.48 9.818s34.41 15.683 47.57 27.415c13.17 11.731 23.41 25.686 30.74 41.863s11 33.775 11 52.793c0 20.746-3.89 39.455-11.67 56.126s-18.47 30.75-32.09 42.234c-13.61 11.485-29.84 20.315-48.69 26.489s-39.2 9.262-61.04 9.262H939V227zm48.021 39.641v186.348h32.309c17.36 0 32.91-2.285 46.68-6.854 13.76-4.569 25.43-11.052 35-19.45 9.58-8.397 16.98-18.276 22.22-29.638 5.23-11.361 7.85-23.957 7.85-37.788 0-14.078-2.39-26.798-7.18-38.159a76.93 76.93 0 0 0-21.32-29.082c-9.42-8.027-21.09-14.263-35-18.709s-30-6.668-48.25-6.668h-32.309zM1297.69 285c14.35 0 27.5 2.087 39.46 6.26s22.2 10.495 30.72 18.964 15.17 19.149 19.96 32.037c4.78 12.888 7.17 27.924 7.17 45.109 0 6.137-.15 11.477-.45 16.018s-.6 7.549-.9 9.022h-149.77c0 6.383 1.42 12.213 4.26 17.492s6.65 9.881 11.43 13.808c4.79 3.928 10.47 6.935 17.04 9.022 6.58 2.087 13.76 3.13 21.53 3.13 8.67 0 16.14-1.166 22.42-3.498s11.81-5.831 16.59-10.495l32.29 24.304c-9.57 10.31-20.48 17.859-32.74 22.646-12.25 4.788-25.56 7.181-39.91 7.181-33.48 0-58.82-8.96-76.01-26.881S1195 425.544 1195 392.157c0-16.448 2.39-31.3 7.17-44.557 4.79-13.256 11.59-24.549 20.41-33.877s19.58-16.448 32.29-21.358c12.7-4.91 26.98-7.365 42.82-7.365zm-.45 38.665c-16.14 0-28.92 4.664-38.34 13.993s-14.42 21.358-15.02 36.087h102.69c-.6-15.466-5.38-27.679-14.35-36.64s-20.63-13.44-34.98-13.44zM1512.91 285c17.88 0 32.93 2.823 45.14 8.469 12.22 5.647 21.31 12.398 27.27 20.254l-36.65 24.303a42.9 42.9 0 0 0-14.53-9.574c-5.51-2.209-12.59-3.314-21.23-3.314-16.09 0-28.98 5.892-38.66 17.675-9.69 11.784-14.53 27.25-14.53 46.398 0 44.434 18.47 66.651 55.42 66.651 6.86 0 13.04-1.289 18.55-3.866 5.52-2.578 10.51-5.954 14.98-10.127l39.33 23.935c-19.67 20.131-44.7 30.196-75.09 30.196-15.79 0-30.02-2.578-42.69-7.733-12.66-5.155-23.39-12.397-32.18-21.726s-15.49-20.56-20.11-33.694-6.93-27.802-6.93-44.004c0-14.975 2.53-28.845 7.6-41.611 5.06-12.765 12.14-23.751 21.23-32.957s19.82-16.387 32.18-21.542c12.37-5.155 26-7.733 40.9-7.733z"/></g></g></g></svg>