<svg xmlns="http://www.w3.org/2000/svg" width="1045" height="228" overflow="hidden" xmlns:v="https://vecta.io/nano"><defs><clipPath id="A"><path d="M325 564h1045v228H325z"/></clipPath></defs><g clip-path="url(#A)" transform="translate(-325 -564)" fill="#051e5b" fill-rule="evenodd"><path d="M1256.64 564v118.07l58.9-61.918h49.64l-58.53 60.097L1370 788h-45.2l-45.19-79.827-22.97 23.372V788H1217V577.962L1256.64 564zM325 570h141v32.488H364.392v57.688h63.689v32.183h-63.689v63.457H466V788H325V570z"/><path d="M466 570h47.339l56.216 80.156L626.51 570H672l-78.776 109.304L669.041 788h-46.23l-55.106-81.674L512.23 788H466l76.926-109.911L466 570z"/><path d="M672 570h74.112c18.435 0 35.273 2.682 50.514 8.046s28.268 12.853 39.083 22.468 19.235 21.051 25.257 34.309S870 662.503 870 678.089c0 17.003-3.195 32.336-9.587 45.999s-15.179 25.2-26.363 34.613-24.519 16.648-40.005 21.708S761.843 788 743.899 788H672V570zm39.453 32.488v152.721H738c14.257 0 27.039-1.872 38.346-5.617s20.894-9.058 28.76-15.94 13.95-14.979 18.252-24.29 6.452-19.634 6.452-30.969c0-11.538-1.966-21.962-5.899-31.273s-9.771-17.256-17.514-23.834-17.33-11.69-28.76-15.333-24.643-5.465-39.637-5.465h-26.547zM966.206 617c11.767 0 22.553 1.721 32.359 5.162s18.205 8.655 25.185 15.639c6.99 6.984 12.44 15.791 16.37 26.419 3.92 10.628 5.88 23.028 5.88 37.199 0 5.061-.12 9.464-.37 13.209-.24 3.745-.49 6.225-.73 7.44H922.081c0 5.264 1.164 10.072 3.493 14.424s5.455 8.149 9.377 11.388 8.58 5.719 13.973 7.439 11.276 2.582 17.65 2.582c7.109 0 13.238-.962 18.386-2.885a38.43 38.43 0 0 0 13.605-8.655l26.475 20.042c-7.84 8.503-16.79 14.728-26.843 18.675S977.238 791 965.471 791c-27.456 0-48.232-7.389-62.328-22.168S882 732.899 882 705.367c0-13.564 1.961-25.812 5.883-36.744s9.5-20.244 16.731-27.937 16.057-13.564 26.476-17.613S953.214 617 966.206 617zm-.367 31.885c-13.238 0-23.718 3.846-31.44 11.539s-11.828 17.613-12.318 29.759h84.209c-.49-12.754-4.42-22.825-11.77-30.214s-16.915-11.084-28.681-11.084zM1143.06 617c14.75 0 27.16 2.328 37.24 6.984s17.57 10.224 22.49 16.702l-30.23 20.042c-3.45-3.442-7.44-6.074-11.99-7.896-4.54-1.821-10.38-2.733-17.51-2.733-13.27 0-23.9 4.859-31.89 14.577s-11.98 22.471-11.98 38.261c0 36.642 15.24 54.964 45.71 54.964 5.66 0 10.76-1.063 15.3-3.189a47.48 47.48 0 0 0 12.36-8.351l32.44 19.738C1188.78 782.7 1168.13 791 1143.06 791c-13.03 0-24.76-2.126-35.21-6.377s-19.29-10.223-26.54-17.916c-7.26-7.693-12.79-16.955-16.6-27.785s-5.71-22.927-5.71-36.289c0-12.349 2.09-23.787 6.27-34.314s10.01-19.586 17.51-27.178 16.35-13.513 26.55-17.764 21.44-6.377 33.73-6.377z"/></g></svg>