<svg width="1045" height="228" xmlns="http://www.w3.org/2000/svg" xmlns:xlink="http://www.w3.org/1999/xlink" overflow="hidden"><defs><clipPath id="clip0"><rect x="325" y="564" width="1045" height="228"/></clipPath></defs><g clip-path="url(#clip0)" transform="translate(-325 -564)"><path d="M1256.64 564C1256.64 603.357 1256.64 642.714 1256.64 682.07 1276.27 661.431 1295.91 640.791 1315.54 620.152 1332.09 620.152 1348.64 620.152 1365.18 620.152 1345.67 640.184 1326.16 660.217 1306.65 680.249 1327.77 716.166 1348.88 752.083 1370 788 1354.93 788 1339.87 788 1324.8 788 1309.74 761.391 1294.67 734.782 1279.61 708.173 1271.95 715.964 1264.3 723.754 1256.64 731.545 1256.64 750.363 1256.64 769.182 1256.64 788 1243.43 788 1230.21 788 1217 788 1217 717.987 1217 647.975 1217 577.962 1230.21 573.308 1243.43 568.654 1256.64 564Z" fill="#051E5B" fill-rule="evenodd"/><path d="M325 570C372 570 419 570 466 570 466 580.829 466 591.658 466 602.488 432.131 602.488 398.261 602.488 364.392 602.488 364.392 621.717 364.392 640.946 364.392 660.176 385.621 660.176 406.851 660.176 428.081 660.176 428.081 670.904 428.081 681.631 428.081 692.359 406.851 692.359 385.621 692.359 364.392 692.359 364.392 713.512 364.392 734.664 364.392 755.816 398.261 755.816 432.131 755.816 466 755.816 466 766.544 466 777.272 466 788 419 788 372 788 325 788 325 715.333 325 642.667 325 570Z" fill="#051E5B" fill-rule="evenodd"/><path d="M466 570C481.78 570 497.559 570 513.339 570 532.078 596.719 550.816 623.437 569.555 650.156 588.54 623.437 607.525 596.719 626.51 570 641.673 570 656.837 570 672 570 645.741 606.435 619.483 642.869 593.224 679.304 618.497 715.536 643.769 751.768 669.041 788 653.631 788 638.221 788 622.811 788 604.443 760.775 586.074 733.551 567.705 706.326 549.213 733.551 530.722 760.775 512.23 788 496.82 788 481.41 788 466 788 491.642 751.363 517.284 714.726 542.926 678.089 517.284 642.059 491.642 606.03 466 570Z" fill="#051E5B" fill-rule="evenodd"/><path d="M672 570C696.704 570 721.408 570 746.112 570 764.547 570 781.385 572.682 796.626 578.046 811.866 583.41 824.894 590.899 835.709 600.514 846.525 610.129 854.944 621.565 860.966 634.823 866.989 648.081 870 662.503 870 678.089 870 695.092 866.805 710.425 860.413 724.088 854.022 737.751 845.234 749.288 834.05 758.701 822.866 768.113 809.531 775.349 794.045 780.409 778.559 785.47 761.843 788 743.899 788 719.933 788 695.966 788 672 788 672 715.333 672 642.667 672 570ZM711.453 602.488C711.453 653.395 711.453 704.302 711.453 755.209 720.302 755.209 729.151 755.209 738 755.209 752.257 755.209 765.039 753.337 776.346 749.592 787.654 745.847 797.24 740.534 805.106 733.652 812.972 726.77 819.056 718.673 823.358 709.362 827.659 700.051 829.81 689.728 829.81 678.393 829.81 666.855 827.844 656.431 823.911 647.12 819.978 637.809 814.14 629.864 806.397 623.286 798.654 616.707 789.067 611.596 777.637 607.953 766.207 604.309 752.994 602.488 738 602.488 729.151 602.488 720.302 602.488 711.453 602.488Z" fill="#051E5B" fill-rule="evenodd"/><path d="M966.206 617C977.973 617 988.759 618.721 998.565 622.162 1008.37 625.604 1016.77 630.817 1023.75 637.801 1030.74 644.785 1036.19 653.592 1040.12 664.22 1044.04 674.848 1046 687.248 1046 701.419 1046 706.48 1045.88 710.883 1045.63 714.628 1045.39 718.373 1045.14 720.853 1044.9 722.068 1003.96 722.068 963.019 722.068 922.081 722.068 922.081 727.332 923.245 732.14 925.574 736.492 927.903 740.845 931.029 744.641 934.951 747.88 938.873 751.119 943.531 753.599 948.924 755.319 954.317 757.04 960.2 757.901 966.574 757.901 973.683 757.901 979.812 756.939 984.96 755.016 990.108 753.092 994.643 750.208 998.565 746.361 1007.39 753.042 1016.22 759.723 1025.04 766.403 1017.2 774.906 1008.25 781.131 998.197 785.078 988.146 789.026 977.238 791 965.471 791 938.015 791 917.239 783.611 903.143 768.832 889.048 754.054 882 732.899 882 705.367 882 691.803 883.961 679.555 887.883 668.623 891.806 657.691 897.383 648.379 904.614 640.686 911.846 632.993 920.671 627.122 931.09 623.073 941.508 619.024 953.214 617 966.206 617ZM965.839 648.885C952.601 648.885 942.121 652.731 934.399 660.424 926.677 668.117 922.571 678.037 922.081 690.183 950.149 690.183 978.218 690.183 1006.29 690.183 1005.8 677.429 1001.87 667.358 994.52 659.969 987.166 652.579 977.605 648.885 965.839 648.885Z" fill="#051E5B" fill-rule="evenodd"/><path d="M1143.06 617C1157.81 617 1170.22 619.328 1180.3 623.984 1190.38 628.641 1197.87 634.208 1202.79 640.686 1192.71 647.367 1182.63 654.047 1172.56 660.728 1169.11 657.286 1165.12 654.654 1160.57 652.832 1156.03 651.011 1150.19 650.099 1143.06 650.099 1129.79 650.099 1119.16 654.958 1111.17 664.676 1103.18 674.393 1099.19 687.147 1099.19 702.937 1099.19 739.579 1114.43 757.901 1144.9 757.901 1150.56 757.901 1155.66 756.838 1160.2 754.712 1164.75 752.586 1168.87 749.803 1172.56 746.361 1183.37 752.941 1194.19 759.52 1205 766.099 1188.78 782.7 1168.13 791 1143.06 791 1130.03 791 1118.3 788.874 1107.85 784.623 1097.4 780.372 1088.56 774.4 1081.31 766.707 1074.05 759.014 1068.52 749.752 1064.71 738.922 1060.9 728.091 1059 715.995 1059 702.633 1059 690.284 1061.09 678.846 1065.27 668.319 1069.45 657.792 1075.28 648.733 1082.78 641.141 1090.28 633.55 1099.13 627.628 1109.33 623.377 1119.53 619.126 1130.77 617 1143.06 617Z" fill="#051E5B" fill-rule="evenodd"/></g></svg>